<?xml version="1.0" standalone="no"?><!DOCTYPE svg PUBLIC "-//W3C//DTD SVG 1.1//EN" "http://www.w3.org/Graphics/SVG/1.1/DTD/svg11.dtd"><svg t="1627043941559" class="icon" viewBox="0 0 1024 1024" version="1.1" xmlns="http://www.w3.org/2000/svg" p-id="1938" xmlns:xlink="http://www.w3.org/1999/xlink" width="200" height="200"><defs><style type="text/css">@font-face { font-family: feedback-iconfont; src: url("//at.alicdn.com/t/font_1031158_1uhr8ri0pk5.eot?#iefix") format("embedded-opentype"), url("//at.alicdn.com/t/font_1031158_1uhr8ri0pk5.woff2") format("woff2"), url("//at.alicdn.com/t/font_1031158_1uhr8ri0pk5.woff") format("woff"), url("//at.alicdn.com/t/font_1031158_1uhr8ri0pk5.ttf") format("truetype"), url("//at.alicdn.com/t/font_1031158_1uhr8ri0pk5.svg#iconfont") format("svg"); }
</style></defs><path d="M768 939.690667h-113.777778a28.444444 28.444444 0 0 1-28.444444-28.444445v28.444445-227.555556a28.444444 28.444444 0 0 0-28.444445-28.444444h-170.666666a28.444444 28.444444 0 0 0-28.444445 28.444444v199.111111a28.444444 28.444444 0 0 1-28.444444 28.444445H256a170.666667 170.666667 0 0 1-170.666667-170.666667v-341.333333c0-32.142222 0.512-44.401778 56.888889-87.722667l345.230222-274.432a39.196444 39.196444 0 0 1 49.095112 0L881.777778 339.968c50.858667 37.632 56.832 55.552 56.888889 87.722667v341.333333a170.666667 170.666667 0 0 1-170.666667 170.666667z" p-id="1939"></path><path d="M768 939.690667h-113.777778a28.444444 28.444444 0 0 1-28.444444-28.444445v28.444445-227.555556a28.444444 28.444444 0 0 0-28.444445-28.444444h-170.666666a28.444444 28.444444 0 0 0-28.444445 28.444444v199.111111a28.444444 28.444444 0 0 1-28.444444 28.444445H256a170.666667 170.666667 0 0 1-170.666667-170.666667v-341.333333c0-32.142222 0.512-44.401778 56.888889-87.722667l345.230222-274.432a39.196444 39.196444 0 0 1 49.095112 0L881.777778 339.968c50.858667 37.632 56.832 55.552 56.888889 87.722667v341.333333a170.666667 170.666667 0 0 1-170.666667 170.666667z" p-id="1940"></path></svg>