<?xml version="1.0" standalone="no"?><!DOCTYPE svg PUBLIC "-//W3C//DTD SVG 1.1//EN" "http://www.w3.org/Graphics/SVG/1.1/DTD/svg11.dtd"><svg t="1627043445272" class="icon" viewBox="0 0 1024 1024" version="1.1" xmlns="http://www.w3.org/2000/svg" p-id="1333" xmlns:xlink="http://www.w3.org/1999/xlink" width="200" height="200"><defs><style type="text/css">@font-face { font-family: feedback-iconfont; src: url("//at.alicdn.com/t/font_1031158_1uhr8ri0pk5.eot?#iefix") format("embedded-opentype"), url("//at.alicdn.com/t/font_1031158_1uhr8ri0pk5.woff2") format("woff2"), url("//at.alicdn.com/t/font_1031158_1uhr8ri0pk5.woff") format("woff"), url("//at.alicdn.com/t/font_1031158_1uhr8ri0pk5.ttf") format("truetype"), url("//at.alicdn.com/t/font_1031158_1uhr8ri0pk5.svg#iconfont") format("svg"); }
</style></defs><path d="M581.9904 324.2496a40.96 40.96 0 0 1 40.96 40.96v361.7792a40.96 40.96 0 0 1-40.96 40.96h-430.08a40.96 40.96 0 0 1-40.96-40.96V365.2096a40.96 40.96 0 0 1 40.96-40.96h430.08z m306.3808 18.8416a17.0496 17.0496 0 0 1 24.6784 15.3088v375.4496a17.0496 17.0496 0 0 1-24.6784 15.2576l-204.8-102.4a17.0496 17.0496 0 0 1-9.4208-15.2576V460.8c0-6.4512 3.584-12.3904 9.4208-15.3088z" p-id="1334"></path></svg>