<?xml version="1.0" standalone="no"?><!DOCTYPE svg PUBLIC "-//W3C//DTD SVG 1.1//EN" "http://www.w3.org/Graphics/SVG/1.1/DTD/svg11.dtd"><svg t="1627044211414" class="icon" viewBox="0 0 1024 1024" version="1.1" xmlns="http://www.w3.org/2000/svg" p-id="1938" xmlns:xlink="http://www.w3.org/1999/xlink" width="200" height="200"><defs><style type="text/css">@font-face { font-family: feedback-iconfont; src: url("//at.alicdn.com/t/font_1031158_1uhr8ri0pk5.eot?#iefix") format("embedded-opentype"), url("//at.alicdn.com/t/font_1031158_1uhr8ri0pk5.woff2") format("woff2"), url("//at.alicdn.com/t/font_1031158_1uhr8ri0pk5.woff") format("woff"), url("//at.alicdn.com/t/font_1031158_1uhr8ri0pk5.ttf") format("truetype"), url("//at.alicdn.com/t/font_1031158_1uhr8ri0pk5.svg#iconfont") format("svg"); }
</style></defs><path d="M910.222222 312.888889H113.777778a28.444444 28.444444 0 0 1-28.444445-28.444445V256a56.888889 56.888889 0 0 1 56.888889-56.888889h739.555556a56.888889 56.888889 0 0 1 56.888889 56.888889v28.444444a28.444444 28.444444 0 0 1-28.444445 28.444445zM113.777778 568.888889a28.444444 28.444444 0 0 1-28.444445-28.444445v-56.888888a28.444444 28.444444 0 0 1 28.444445-28.444445h796.444444a28.444444 28.444444 0 0 1 28.444445 28.444445v56.888888a28.444444 28.444444 0 0 1-28.444445 28.444445H113.777778z m739.555555 256H170.666667c-60.672 0-85.333333-111.900444-85.333334-113.777778h853.333334s-24.661333 113.777778-85.333334 113.777778z" p-id="1939"></path><path d="M910.222222 312.888889H113.777778a28.444444 28.444444 0 0 1-28.444445-28.444445V256a56.888889 56.888889 0 0 1 56.888889-56.888889h739.555556a56.888889 56.888889 0 0 1 56.888889 56.888889v28.444444a28.444444 28.444444 0 0 1-28.444445 28.444445zM113.777778 568.888889a28.444444 28.444444 0 0 1-28.444445-28.444445v-56.888888a28.444444 28.444444 0 0 1 28.444445-28.444445h796.444444a28.444444 28.444444 0 0 1 28.444445 28.444445v56.888888a28.444444 28.444444 0 0 1-28.444445 28.444445H113.777778z m739.555555 256H170.666667c-60.672 0-85.333333-111.900444-85.333334-113.777778h853.333334s-24.661333 113.777778-85.333334 113.777778z" p-id="1940"></path></svg>