<?xml version="1.0" standalone="no"?><!DOCTYPE svg PUBLIC "-//W3C//DTD SVG 1.1//EN" "http://www.w3.org/Graphics/SVG/1.1/DTD/svg11.dtd"><svg t="1627043235957" class="icon" viewBox="0 0 1024 1024" version="1.1" xmlns="http://www.w3.org/2000/svg" p-id="789" xmlns:xlink="http://www.w3.org/1999/xlink" width="200" height="200"><defs><style type="text/css">@font-face { font-family: feedback-iconfont; src: url("//at.alicdn.com/t/font_1031158_1uhr8ri0pk5.eot?#iefix") format("embedded-opentype"), url("//at.alicdn.com/t/font_1031158_1uhr8ri0pk5.woff2") format("woff2"), url("//at.alicdn.com/t/font_1031158_1uhr8ri0pk5.woff") format("woff"), url("//at.alicdn.com/t/font_1031158_1uhr8ri0pk5.ttf") format("truetype"), url("//at.alicdn.com/t/font_1031158_1uhr8ri0pk5.svg#iconfont") format("svg"); }
</style></defs><path d="M870.4 426.6496h-63.5392a305.664 305.664 0 0 0-26.0608-62.7712l44.9536-44.9536a51.2 51.2 0 0 0 0-72.3968l-48.2816-48.2304a51.2 51.2 0 0 0-72.3968 0l-45.0048 44.9536a303.9744 303.9744 0 0 0-62.72-26.0608V153.6a51.2 51.2 0 0 0-51.2-51.2H477.8496a51.2 51.2 0 0 0-51.2 51.2v63.5904a306.176 306.176 0 0 0-62.7712 26.0608l-44.9536-44.9536a51.2 51.2 0 0 0-72.3968 0l-48.3328 48.2304a51.2 51.2 0 0 0 0 72.448l45.0048 44.9536c-11.008 19.8656-19.7632 40.96-26.0608 62.72H153.6a51.2 51.2 0 0 0-51.2 51.2v68.3008a51.2 51.2 0 0 0 51.2 51.2h63.5392c6.2976 21.8112 15.0528 42.8544 26.0608 62.7712l-45.056 45.0048a51.2 51.2 0 0 0 0 72.3968l48.2816 48.2816a52.736 52.736 0 0 0 72.448 0l45.0048-44.9536c19.8656 10.9568 40.96 19.712 62.7712 26.0608V870.4a51.2 51.2 0 0 0 51.2 51.2h68.3008a51.2 51.2 0 0 0 51.2-51.2v-63.488a306.0224 306.0224 0 0 0 62.7712-26.0608l44.9536 44.9536a51.2 51.2 0 0 0 72.3968 0l48.2816-48.2304a51.2 51.2 0 0 0 0-72.3968l-44.9536-44.9536c11.008-19.9168 19.712-40.96 26.0608-62.8224H870.4a51.2 51.2 0 0 0 51.2-51.2512V477.8496a51.2 51.2 0 0 0-51.2-51.2z m-358.4 256a170.6496 170.6496 0 1 1 0-341.2992 170.6496 170.6496 0 0 1 0 341.2992z" p-id="790"></path></svg>