<?xml version="1.0" standalone="no"?><!DOCTYPE svg PUBLIC "-//W3C//DTD SVG 1.1//EN" "http://www.w3.org/Graphics/SVG/1.1/DTD/svg11.dtd"><svg t="1627044283341" class="icon" viewBox="0 0 1024 1024" version="1.1" xmlns="http://www.w3.org/2000/svg" p-id="2487" xmlns:xlink="http://www.w3.org/1999/xlink" width="200" height="200"><defs><style type="text/css">@font-face { font-family: feedback-iconfont; src: url("//at.alicdn.com/t/font_1031158_1uhr8ri0pk5.eot?#iefix") format("embedded-opentype"), url("//at.alicdn.com/t/font_1031158_1uhr8ri0pk5.woff2") format("woff2"), url("//at.alicdn.com/t/font_1031158_1uhr8ri0pk5.woff") format("woff"), url("//at.alicdn.com/t/font_1031158_1uhr8ri0pk5.ttf") format("truetype"), url("//at.alicdn.com/t/font_1031158_1uhr8ri0pk5.svg#iconfont") format("svg"); }
</style></defs><path d="M967.111111 890.538667c0 26.567111-20.935111 48.128-46.734222 48.128h-135.822222c7.452444-10.752 11.889778-23.808 11.889777-37.916445V711.111111c0-19.911111-3.754667-38.741333-9.130666-56.888889h39.623111C904.362667 654.222222 967.111111 718.876444 967.111111 798.634667v91.904zM782.222222 568.888889c-26.282667 0-50.688-7.964444-70.997333-21.560889-0.768-0.540444-1.450667-1.137778-2.218667-1.649778A127.715556 127.715556 0 0 1 654.222222 440.888889a128 128 0 1 1 128 128zM398.222222 483.555556a199.111111 199.111111 0 1 1 0-398.222223 199.111111 199.111111 0 0 1 0 398.222223z m170.666667 85.333333a170.666667 170.666667 0 0 1 170.666667 170.666667v142.222222a56.888889 56.888889 0 0 1-56.888889 56.888889H113.777778a56.888889 56.888889 0 0 1-56.888889-56.888889v-142.222222a170.666667 170.666667 0 0 1 170.666667-170.666667h341.333333z" p-id="2488"></path><path d="M967.111111 890.538667c0 26.567111-20.935111 48.128-46.734222 48.128h-135.822222c7.452444-10.752 11.889778-23.808 11.889777-37.916445V711.111111c0-19.911111-3.754667-38.741333-9.130666-56.888889h39.623111C904.362667 654.222222 967.111111 718.876444 967.111111 798.634667v91.904zM782.222222 568.888889c-26.282667 0-50.688-7.964444-70.997333-21.560889-0.768-0.540444-1.450667-1.137778-2.218667-1.649778A127.715556 127.715556 0 0 1 654.222222 440.888889a128 128 0 1 1 128 128zM398.222222 483.555556a199.111111 199.111111 0 1 1 0-398.222223 199.111111 199.111111 0 0 1 0 398.222223z m170.666667 85.333333a170.666667 170.666667 0 0 1 170.666667 170.666667v142.222222a56.888889 56.888889 0 0 1-56.888889 56.888889H113.777778a56.888889 56.888889 0 0 1-56.888889-56.888889v-142.222222a170.666667 170.666667 0 0 1 170.666667-170.666667h341.333333z" p-id="2489"></path></svg>